<svg id="visual" viewBox="0 0 900 600" width="900" height="600" xmlns="http://www.w3.org/2000/svg" xmlns:xlink="http://www.w3.org/1999/xlink" version="1.1"><rect x="0" y="0" width="900" height="600" fill="#001220"></rect><defs><linearGradient id="grad1_0" x1="33.3%" y1="0%" x2="100%" y2="100%"><stop offset="20%" stop-color="#001220" stop-opacity="1"></stop><stop offset="80%" stop-color="#001220" stop-opacity="1"></stop></linearGradient></defs><defs><linearGradient id="grad2_0" x1="0%" y1="0%" x2="66.7%" y2="100%"><stop offset="20%" stop-color="#001220" stop-opacity="1"></stop><stop offset="80%" stop-color="#001220" stop-opacity="1"></stop></linearGradient></defs><g transform="translate(900, 0)"><path d="M0 270.4C-24.2 255.9 -48.5 241.5 -76.3 234.9C-104.2 228.4 -135.6 229.7 -156.9 216C-178.3 202.3 -189.5 173.5 -206.3 149.9C-223.1 126.2 -245.6 107.7 -257.2 83.6C-268.8 59.4 -269.6 29.7 -270.4 0L0 0Z" fill="#FBAE3C"></path></g><g transform="translate(0, 600)"><path d="M0 -270.4C21.5 -243.7 43 -217 67.7 -208.3C92.3 -199.5 120.2 -208.7 148.7 -204.7C177.3 -200.6 206.5 -183.3 218.8 -158.9C231 -134.6 226.3 -103.1 232.1 -75.4C237.8 -47.7 254.1 -23.9 270.4 0L0 0Z" fill="#FBAE3C"></path></g></svg>